<svg xmlns="http://www.w3.org/2000/svg" viewBox="0 0 522.01 522.01"><defs><style>.cls-1{fill:#fff;}.cls-2{fill:#231f20;fill-rule:evenodd;}</style></defs><g id="Layer_2" data-name="Layer 2"><g id="Layer_3" data-name="Layer 3"><circle class="cls-1" cx="261" cy="261" r="261" transform="translate(-108.11 261) rotate(-45)"/><path class="cls-2" d="M131.43,214.41H183.3V388.59H131.43ZM157.05,126a31.38,31.38,0,0,1,0,62.76c-17.29,0-30.74-14.09-30.74-31.38S139.76,126,157.05,126Zm57,88.37h51.23v24.34a59.26,59.26,0,0,1,49.31-26.26h14.08c32.66,0,58.92,26.9,58.92,58.91V388.59H336.35v-16h0V294.46h0c-.64-19.85-14.09-35.22-33.94-35.22h0c-19.85,0-36.5,15.37-37.14,35.22h0v94.13H214Z"/></g></g></svg>