<svg xmlns="http://www.w3.org/2000/svg" viewBox="0 0 522.01 522.01"><defs><style>.cls-1{fill:#fff;}.cls-2{fill:#231f20;fill-rule:evenodd;}</style></defs><g id="Layer_2" data-name="Layer 2"><g id="Layer_3" data-name="Layer 3"><circle class="cls-1" cx="261" cy="261" r="261" transform="translate(-108.11 261) rotate(-45)"/><path class="cls-2" d="M263.08,127.9h0C344,134,337.1,192,335.57,238.55c0,0,4.58,1.52,21.37-7.63,0,0,9.15-6.11,16,.76,0,0,8.39,9.16-8.39,18.31L337.1,269.83s0,39.68,64.09,69.44c0,0-1.52,6.87-32.81,13,0,0-5.34,1.52-8.39,13.73-2.29,7.63-17.55,4.58-25.18,4.58,0,0-16,0-32.82,14.5a91.74,91.74,0,0,1-38.91,12.21h0a86.12,86.12,0,0,1-38.16-12.21c-16.78-14.5-33.57-14.5-33.57-14.5-6.87,0-22.89,3.05-24.42-4.58-3.05-12.21-9.16-13.73-9.16-13.73-31.28-6.11-32.81-13-32.81-13,64.1-29.76,64.1-69.44,64.1-69.44L161.59,250c-16-9.15-7.63-18.31-7.63-18.31,6.86-6.87,16-.76,16-.76,16.79,9.15,21.37,7.63,21.37,7.63C189.06,192,183,134,263.08,127.9Z"/></g></g></svg>