<svg xmlns="http://www.w3.org/2000/svg" viewBox="0 0 522.01 522.01"><defs><style>.cls-1{fill:#fff;}.cls-2{fill:#231f20;fill-rule:evenodd;}</style></defs><g id="Layer_2" data-name="Layer 2"><g id="Layer_3" data-name="Layer 3"><circle class="cls-1" cx="261" cy="261" r="261"/><path class="cls-2" d="M126.25,256.76c60.76-25.48,134.26-61.74,198-86.24,58.8-21.56,57.82-15.68,49,43.12-6.86,47-14.7,94.08-22.54,141.12-2.94,22.54-14.7,34.3-39.2,20.58L235,321.44c-10.78-8.82-7.84-15.68,1-24.5l70.56-66.64c18.62-18.62,9.8-25.48-11.76-10.78l-97,65.66c-13.72,9.8-28.42,9.8-44.1,4.9l-33.32-11.76c-21.56-7.84-4.9-16.66,5.88-21.56Z"/></g></g></svg>