<svg xmlns="http://www.w3.org/2000/svg" viewBox="0 0 522.01 522.01"><defs><style>.cls-1{fill:#231f20;}.cls-2{fill:#fff;fill-rule:evenodd;}</style></defs><g id="Layer_2" data-name="Layer 2"><g id="Layer_3" data-name="Layer 3"><circle class="cls-1" cx="261" cy="261" r="261"/><path class="cls-2" d="M373.34,184.64c-13.88-1.9-25.87-9.47-36-20.83-12-13.25-18.93-30.93-18.3-48H269.21V314.65c0,23.35-18.94,42.28-42.92,42.28-13.88,0-26.51-6.94-34.71-17.67a42.64,42.64,0,0,1,34.71-66.9,40.41,40.41,0,0,1,12.62,1.9V223.77a77.66,77.66,0,0,0-12.62-1.27H224.4a92,92,0,0,0-65.64,154.63,93.89,93.89,0,0,0,67.53,29c51.12,0,92.78-41,92.78-91.51V211.14a91.89,91.89,0,0,0,68.79,23.36V184.64A28.33,28.33,0,0,1,373.34,184.64Z"/></g></g></svg>