<svg xmlns="http://www.w3.org/2000/svg" viewBox="0 0 522.01 522.01"><defs><style>.cls-1,.cls-3{fill:#231f20;}.cls-2{fill:#fff;}.cls-2,.cls-3{fill-rule:evenodd;}</style></defs><g id="Layer_2" data-name="Layer 2"><g id="Layer_3" data-name="Layer 3"><circle class="cls-1" cx="261" cy="261" r="261"/><path class="cls-2" d="M171.7,158.06c29.12-2.33,63.5-3.5,89.71-3.5h0c26.22,0,60,1.17,89.72,3.5C385.5,161,403,166.8,407.64,201.17c2.33,15.73,3.5,37.29,3.5,59.42h0c0,22.14-1.17,44.28-3.5,59.43-4.66,35-22.14,40.19-56.51,43.11-29.71,2.91-63.5,3.49-89.72,3.49h0c-26.21,0-60.59-.58-89.71-3.49-34.38-2.92-52.44-8.16-57.1-43.11-1.75-15.15-2.91-37.29-2.91-59.43h0a569.19,569.19,0,0,1,2.91-59.42c4.66-34.37,22.72-40.2,57.1-43.11Z"/><polygon class="cls-3" points="231.12 215.74 309.18 260.59 231.12 306.03 231.12 215.74"/></g></g></svg>